# xmcd
# 
# Track frame offsets:
#     150
#     22984
#     41962
#     60330
#     77550
#     96491
#     113703
#     133068
#     149718
#     163769
#     179735
#     200866
#     219227
#     240468
#     259209
#     275665
#     290808
#     305408
#     324188
#     338629
# 
# Disc length: 4702
# 
# Revision: 15
# Processed by: cddbd v1.5.2PL0 Copyright (c) Steve Scherf et al.
# Submitted via: fre:ac v1.0.27
# 
DISCID=38125c14
DTITLE=Electric Light Orchestra - The Very Best of ELO Vol1
DYEAR=2015
DGENRE=Symphonic Rock
TTITLE0=Mr. Blue Sky
TTITLE1=Evil Woman
TTITLE2=Don't Bring Me Down
TTITLE3=Sweet Talkin' Woman
TTITLE4=Shine A Little Love
TTITLE5=Turn To Stone
TTITLE6=The Diary Of Horace Wimp
TTITLE7=Confusion
TTITLE8=Hold On Tight
TTITLE9=Livin' Thing
TTITLE10=Telephone Line
TTITLE11=All Over The World
TTITLE12=Wild West Hero
TTITLE13=Showdown
TTITLE14=Ma-Ma-Ma Belle
TTITLE15=Xanadu (New Version)
TTITLE16=Rockaria!
TTITLE17=Strange Magic
TTITLE18=Alright
TTITLE19=Rock 'N' Roll Is King
EXTD=
EXTT0=
EXTT1=
EXTT2=
EXTT3=
EXTT4=
EXTT5=
EXTT6=
EXTT7=
EXTT8=
EXTT9=
EXTT10=
EXTT11=
EXTT12=
EXTT13=
EXTT14=
EXTT15=
EXTT16=
EXTT17=
EXTT18=
EXTT19=
PLAYORDER=
